<svg xmlns="http://www.w3.org/2000/svg" xmlns:xlink="http://www.w3.org/1999/xlink" width="154" height="154" viewBox="0 0 154 154">
  <defs>
    <linearGradient id="linear-gradient" x1="0.312" y1="0.053" x2="0.707" y2="1" gradientUnits="objectBoundingBox">
      <stop offset="0" stop-color="#1259ff"/>
      <stop offset="1" stop-color="#092d80"/>
    </linearGradient>
    <filter id="Ellipse_495" x="0" y="0" width="154" height="154" filterUnits="userSpaceOnUse">
      <feOffset input="SourceAlpha"/>
      <feGaussianBlur stdDeviation="7.5" result="blur"/>
      <feFlood flood-color="#404040" flood-opacity="0.741"/>
      <feComposite operator="in" in2="blur"/>
      <feComposite in="SourceGraphic"/>
    </filter>
  </defs>
  <g id="Group_28000" data-name="Group 28000" transform="translate(-835.5 -860.5)">
    <g transform="matrix(1, 0, 0, 1, 835.5, 860.5)" filter="url(#Ellipse_495)">
      <circle id="Ellipse_495-2" data-name="Ellipse 495" cx="54.5" cy="54.5" r="54.5" transform="translate(22.5 22.5)" fill="url(#linear-gradient)"/>
    </g>
    <g id="Group_27997" data-name="Group 27997" transform="translate(-118.607 41.057)" opacity="0.74">
      <path id="Path_16959" data-name="Path 16959" d="M153.757,356.4a36.49,36.49,0,0,0-3.483,1.623.519.519,0,0,0-.275.456v45.171a.517.517,0,0,0,.754.459,35.731,35.731,0,0,1,23.127-3.343.154.154,0,0,0,.1-.287A27.528,27.528,0,0,0,161,397.165a27.073,27.073,0,0,0-3.5.23l-3.5.459V356.559a.171.171,0,0,0-.233-.159Z" transform="translate(845 520.927)" fill="#fff"/>
      <path id="Path_16960" data-name="Path 16960" d="M174.288,350.575a.6.6,0,0,1,.608-.6,26.535,26.535,0,0,1,15.248,5.205l1.139.837a.6.6,0,0,1,.123.831L190.27,358.4a.6.6,0,0,1-.831.126l-1.135-.838a23.457,23.457,0,0,0-13.437-4.6.593.593,0,0,1-.579-.591v-1.917Zm0-7.242a.592.592,0,0,1,.608-.592,26.513,26.513,0,0,1,15.248,5.206l1.139.837a.593.593,0,0,1,.123.828l-1.135,1.542a.594.594,0,0,1-.831.126l-1.135-.837a23.453,23.453,0,0,0-13.437-4.6.589.589,0,0,1-.579-.592v-1.917Zm16.848,43.942,2.677,2.189a.674.674,0,0,0,1.1-.524l-.036-44.33a.664.664,0,0,0-.252-.527l-5.073-4.045a30.872,30.872,0,0,0-19.263-6.851h-2.044a.585.585,0,0,0-.585.585V380.43a30.7,30.7,0,0,1,23.477,6.845Z" transform="translate(834.431 534.813)" fill="#fff"/>
      <path id="Path_16961" data-name="Path 16961" d="M292.672,403.651V358.48a.519.519,0,0,0-.275-.456,36.892,36.892,0,0,0-3.479-1.623.173.173,0,0,0-.236.159v41.294l-3.5-.459a27.073,27.073,0,0,0-3.5-.23,27.527,27.527,0,0,0-12.982,3.314.154.154,0,0,0,.1.287,35.731,35.731,0,0,1,23.127,3.343.517.517,0,0,0,.754-.459Z" transform="translate(774.012 520.927)" fill="#fff"/>
      <path id="Path_16962" data-name="Path 16962" d="M246.638,363.262l1.135-.837a26.538,26.538,0,0,1,15.248-5.206.6.6,0,0,1,.608.595v1.917a.591.591,0,0,1-.579.592,23.452,23.452,0,0,0-13.438,4.6l-1.135.837a.594.594,0,0,1-.831-.126l-1.135-1.542a.594.594,0,0,1,.126-.831Zm0-7.239,1.135-.837a26.535,26.535,0,0,1,15.248-5.205.6.6,0,0,1,.608.6v1.917a.593.593,0,0,1-.579.591,23.457,23.457,0,0,0-13.438,4.6l-1.135.838a.6.6,0,0,1-.831-.126l-1.135-1.543a.593.593,0,0,1,.126-.831Zm0-7.239,1.135-.837a26.49,26.49,0,0,1,15.248-5.206.592.592,0,0,1,.608.592v1.917a.589.589,0,0,1-.579.592,23.454,23.454,0,0,0-13.438,4.6l-1.135.837a.594.594,0,0,1-.831-.126l-1.135-1.542a.59.59,0,0,1,.126-.828Zm-2.535,40.68,2.677-2.189a30.689,30.689,0,0,1,23.477-6.841V333.772a.585.585,0,0,0-.585-.585h-2.04a30.875,30.875,0,0,0-19.267,6.851l-5.073,4.045a.673.673,0,0,0-.252.527L243,388.94a.674.674,0,0,0,1.1.524Z" transform="translate(789.337 534.813)" fill="#fff"/>
    </g>
  </g>
</svg>
