<svg xmlns="http://www.w3.org/2000/svg" width="227.762" height="39.789" viewBox="0 0 227.762 39.789">
  <g id="TIOmarkets" transform="translate(113.881 19.894)">
    <g id="Group_28523" data-name="Group 28523" transform="translate(-113.881 -19.894)">
      <g id="Group_28521" data-name="Group 28521" transform="translate(103.313 4.043)">
        <path id="Path_18013" data-name="Path 18013" d="M194.155,22.083a8.013,8.013,0,0,1,1.971,5.825V38.741H194.35V28.051a6.725,6.725,0,0,0-1.528-4.76,5.55,5.55,0,0,0-4.262-1.634,6.464,6.464,0,0,0-4.955,1.954,7.383,7.383,0,0,0-1.829,5.257v9.874H180V28.051a6.728,6.728,0,0,0-1.527-4.76,5.552,5.552,0,0,0-4.262-1.634,6.463,6.463,0,0,0-4.955,1.954,7.38,7.38,0,0,0-1.829,5.257v9.874h-1.776V20.2h1.7v3.978a6.849,6.849,0,0,1,2.753-3.036,8.381,8.381,0,0,1,4.35-1.083,7.714,7.714,0,0,1,4.28,1.137,6.182,6.182,0,0,1,2.5,3.338,7.237,7.237,0,0,1,2.9-3.267,8.626,8.626,0,0,1,4.6-1.207A7.211,7.211,0,0,1,194.155,22.083Z" transform="translate(-165.651 -12.387)" fill="#ff7a04"/>
        <path id="Path_18014" data-name="Path 18014" d="M230.519,21.816a6.808,6.808,0,0,1,1.846,5.168V38.741h-1.7v-3.3a6.171,6.171,0,0,1-2.593,2.539,8.6,8.6,0,0,1-4.084.906,7.525,7.525,0,0,1-4.884-1.456,5.036,5.036,0,0,1-.142-7.583q1.652-1.439,5.275-1.439h6.357V26.914a5.225,5.225,0,0,0-1.4-3.943,5.692,5.692,0,0,0-4.1-1.349,9.89,9.89,0,0,0-3.534.639,8.883,8.883,0,0,0-2.859,1.7l-.888-1.278a9.861,9.861,0,0,1,3.339-1.937,12.145,12.145,0,0,1,4.084-.692A7.381,7.381,0,0,1,230.519,21.816Zm-2.362,14.545a6.477,6.477,0,0,0,2.433-3.09V29.791h-6.322a6.3,6.3,0,0,0-3.961.994,3.332,3.332,0,0,0-1.226,2.735,3.424,3.424,0,0,0,1.35,2.859,6.071,6.071,0,0,0,3.8,1.048A6.966,6.966,0,0,0,228.157,36.361Z" transform="translate(-184.005 -12.387)" fill="#ff7a04"/>
        <path id="Path_18015" data-name="Path 18015" d="M251.843,21.142a8.437,8.437,0,0,1,4.4-1.083V21.8l-.427-.035A6.164,6.164,0,0,0,250.99,23.7a7.764,7.764,0,0,0-1.74,5.381v9.661h-1.775V20.2h1.7v4.049A6.42,6.42,0,0,1,251.843,21.142Z" transform="translate(-194.724 -12.387)" fill="#ff7a04"/>
        <path id="Path_18016" data-name="Path 18016" d="M271.193,24.6l-4.831,4.4v5.506h-1.775V8.158h1.775V26.8l11.863-10.833H280.5l-7.992,7.494,8.773,11.047h-2.2Z" transform="translate(-200.804 -8.158)" fill="#ff7a04"/>
        <path id="Path_18017" data-name="Path 18017" d="M306.62,29.9H290.673a7.739,7.739,0,0,0,1.1,3.854,7.037,7.037,0,0,0,2.788,2.61,8.377,8.377,0,0,0,3.961.923,8.492,8.492,0,0,0,3.356-.656,6.537,6.537,0,0,0,2.575-1.936l1.03,1.172a7.9,7.9,0,0,1-3.036,2.238,10.576,10.576,0,0,1-8.9-.426,8.757,8.757,0,0,1-3.392-3.339,9.585,9.585,0,0,1-1.226-4.866,10.087,10.087,0,0,1,1.154-4.848,8.514,8.514,0,0,1,3.179-3.356,9.189,9.189,0,0,1,9.075-.018,8.464,8.464,0,0,1,3.161,3.321,9.984,9.984,0,0,1,1.154,4.831Zm-12.324-7.4a6.628,6.628,0,0,0-2.5,2.45,7.979,7.979,0,0,0-1.083,3.569h14.207a7.442,7.442,0,0,0-1.065-3.552,6.9,6.9,0,0,0-6.039-3.338A7.1,7.1,0,0,0,294.3,22.492Z" transform="translate(-209.454 -12.387)" fill="#ff7a04"/>
        <path id="Path_18018" data-name="Path 18018" d="M329.669,35.415a4.449,4.449,0,0,1-1.687.977,6.639,6.639,0,0,1-2.113.338A5,5,0,0,1,322.14,35.4a5.055,5.055,0,0,1-1.315-3.712V14H322.6v4.049h5.9v1.527h-5.9V31.509a3.916,3.916,0,0,0,.87,2.752,3.336,3.336,0,0,0,2.576.941,4.119,4.119,0,0,0,2.877-1.03Z" transform="translate(-220.786 -10.233)" fill="#ff7a04"/>
        <path id="Path_18019" data-name="Path 18019" d="M338.987,38.208a8.8,8.8,0,0,1-3.161-1.7l.817-1.421a9.381,9.381,0,0,0,2.931,1.6,11.069,11.069,0,0,0,3.746.64,7.351,7.351,0,0,0,4.138-.924,2.94,2.94,0,0,0,1.332-2.557,2.4,2.4,0,0,0-.728-1.846A4.5,4.5,0,0,0,346.269,31q-1.067-.32-2.949-.674a24.547,24.547,0,0,1-3.552-.853,5.551,5.551,0,0,1-2.308-1.492,4,4,0,0,1-.96-2.842,4.443,4.443,0,0,1,1.83-3.64,8.249,8.249,0,0,1,5.2-1.438,12.764,12.764,0,0,1,3.516.5,8.845,8.845,0,0,1,2.842,1.315l-.817,1.421a8.512,8.512,0,0,0-2.593-1.243,10.563,10.563,0,0,0-2.984-.426,6.6,6.6,0,0,0-3.907.959,2.978,2.978,0,0,0-1.315,2.521,2.513,2.513,0,0,0,.746,1.937,4.705,4.705,0,0,0,1.83,1.03q1.083.337,3.036.728a26.187,26.187,0,0,1,3.5.835,5.336,5.336,0,0,1,2.256,1.438,3.867,3.867,0,0,1,.923,2.735,4.335,4.335,0,0,1-1.919,3.694,9.1,9.1,0,0,1-5.4,1.385A13.39,13.39,0,0,1,338.987,38.208Z" transform="translate(-226.117 -12.387)" fill="#ff7a04"/>
      </g>
      <g id="Group_28522" data-name="Group 28522" transform="translate(58.135 3.555)">
        <path id="Path_18020" data-name="Path 18020" d="M137.913,22.964a5.764,5.764,0,0,1,3,.777,5.363,5.363,0,0,1,2.029,2.142,6.749,6.749,0,0,1,.742,3.2,6.831,6.831,0,0,1-.742,3.228,5.355,5.355,0,0,1-2.029,2.147,5.748,5.748,0,0,1-3,.784,5.843,5.843,0,0,1-3.026-.784,5.347,5.347,0,0,1-2.029-2.147,6.788,6.788,0,0,1-.748-3.228,6.7,6.7,0,0,1,.748-3.2,5.359,5.359,0,0,1,2.029-2.142,5.858,5.858,0,0,1,3.026-.777m0-3.525a11.279,11.279,0,0,0-4.023.694,9.072,9.072,0,0,0-3.127,1.964,8.7,8.7,0,0,0-2.029,3.032,11.019,11.019,0,0,0,0,7.826,8.729,8.729,0,0,0,2.029,3.038,9.128,9.128,0,0,0,3.127,1.97,11.2,11.2,0,0,0,4.023.7,11.078,11.078,0,0,0,4-.7,9.092,9.092,0,0,0,3.115-1.97,8.775,8.775,0,0,0,2.023-3.038,11.009,11.009,0,0,0,0-7.826,8.748,8.748,0,0,0-2.023-3.032,9.017,9.017,0,0,0-3.115-1.964A11.157,11.157,0,0,0,137.913,19.439Z" transform="translate(-107.1 -11.678)" fill="#ff7a04"/>
        <rect id="Rectangle_4462" data-name="Rectangle 4462" width="4.059" height="18.939" transform="translate(13.373 7.904)" fill="#ff7a04"/>
        <path id="Path_18021" data-name="Path 18021" d="M118.15,7.4a2.369,2.369,0,0,0-1.222.321,2.259,2.259,0,0,0-.843.878,2.612,2.612,0,0,0-.32,1.293,2.539,2.539,0,0,0,.32,1.27,2.257,2.257,0,0,0,.843.866,2.492,2.492,0,0,0,2.445,0,2.27,2.27,0,0,0,.843-.866,2.552,2.552,0,0,0,.32-1.27,2.626,2.626,0,0,0-.32-1.293,2.268,2.268,0,0,0-.843-.878A2.372,2.372,0,0,0,118.15,7.4Z" transform="translate(-102.747 -7.401)" fill="#ff7a04"/>
        <path id="Path_18022" data-name="Path 18022" d="M104.508,31.784a10.526,10.526,0,0,1-1.519.611,4.707,4.707,0,0,1-1.329.208,2.261,2.261,0,0,1-1.1-.231,1.51,1.51,0,0,1-.689-.8,4.012,4.012,0,0,1-.243-1.536V20.962h5.589V17.9H99.631V12.7H95.573V30.788a6.819,6.819,0,0,0,.427,2.5A4.515,4.515,0,0,0,97.157,35a4.763,4.763,0,0,0,1.691.991,6.49,6.49,0,0,0,2.029.315,8.144,8.144,0,0,0,2.374-.362,10.421,10.421,0,0,0,2.29-1.027Z" transform="translate(-95.573 -9.285)" fill="#ff7a04"/>
      </g>
      <path id="Path_18023" data-name="Path 18023" d="M30.226,22.1V4.425l-8.471,9L20.271,15Zm11.4-7.1-1.467-1.558L31.67,4.425V22.1Zm-11.4,24.187V24.9h0v-1.03l-9.469-6.752,8.766,21.941.043.108,0,0a1.828,1.828,0,0,0,.308.575v0a1.379,1.379,0,0,0,.233.22c.037.028.075.054.115.078ZM41.139,17.114,31.67,23.867V24.9h0V40.043c.039-.025.078-.05.115-.078a1.379,1.379,0,0,0,.233-.22v0a1.828,1.828,0,0,0,.308-.575l0,0,.043-.108Zm2.664-1.9h0l-.5.357L33.708,39.585l-.042.106h0a2.978,2.978,0,0,1-.545.975h0a2.8,2.8,0,0,1-1.039.778h0a2.905,2.905,0,0,1-2.27,0h0a2.808,2.808,0,0,1-1.039-.778h0a2.966,2.966,0,0,1-.545-.975h0l-.041-.106L18.593,15.571l-.5-.357h0L7.048,7.337l-.17-.117a4.8,4.8,0,0,1-.572-.436h0A2.824,2.824,0,0,1,8.222,1.889v0H53.674v0a2.824,2.824,0,0,1,1.919,4.894h0a4.85,4.85,0,0,1-.572.436l-.17.117ZM32.615,3.329,42.808,14.156,54.014,6.164l.193-.134a4.147,4.147,0,0,0,.407-.3h0a1.391,1.391,0,0,0,.329-.463,1.386,1.386,0,0,0-1.267-1.94v0H32.615Zm-3.334,0H8.222v0a1.39,1.39,0,0,0-1.267,1.94,1.391,1.391,0,0,0,.329.463h0a4.147,4.147,0,0,0,.407.3l.193.134,11.206,7.992Z" transform="translate(-5.398 -1.886)" fill="#ff7a04"/>
    </g>
  </g>
</svg>
